<svg width="120" height="102" viewBox="0 0 120 102" fill="none" xmlns="http://www.w3.org/2000/svg">
<path d="M48 29.3332H72M64 29.3332V25.3332C64 23.1269 63.5396 22.6665 61.3333 22.6665H58.6667C56.4604 22.6665 56 23.1269 56 25.3332V29.3332M62 7.99984H58M62 12.6665H58M62 17.3332H58M64 2.6665H56C51.5876 2.6665 50.6667 3.5874 50.6667 7.99984V29.3332H69.3333V7.99984C69.3333 3.5874 68.4124 2.6665 64 2.6665Z" stroke="#9BB7DD" stroke-width="2" stroke-linecap="round"/>
<g clip-path="url(#clip0_5563_14683)">
<mask id="mask0_5563_14683" style="mask-type:luminance" maskUnits="userSpaceOnUse" x="0" y="44" width="121" height="20">
<path d="M0 59.8265V44H2.36934V57.5756H9.94193V58.7245L9.96516 59.8265H0ZM13.0778 47.1497C12.8146 47.4076 12.4506 47.5404 11.9861 47.5404C11.5525 47.5404 11.2118 47.4076 10.9563 47.1497C10.7007 46.8918 10.5691 46.5479 10.5691 46.1258C10.5691 45.7038 10.7007 45.3599 10.964 45.0864C11.2273 44.8128 11.5679 44.6721 11.9861 44.6721C12.4506 44.6721 12.8146 44.805 13.0778 45.0707C13.3411 45.3365 13.4727 45.6882 13.4727 46.1258C13.4727 46.5635 13.3411 46.8918 13.0778 47.1497ZM13.0778 59.8265H10.8943V48.6659H13.0778V59.8265ZM22.9268 63.9766V58.7714C22.4623 59.1465 21.9202 59.4357 21.2931 59.6389C20.6659 59.8421 20.0542 59.9437 19.4657 59.9437C18.3662 59.9437 17.3674 59.6858 16.4847 59.1778C15.5943 58.6698 14.8974 57.982 14.3786 57.1145C13.8676 56.247 13.6121 55.2857 13.6121 54.2462C13.6121 53.2067 13.8599 52.2532 14.3631 51.3544C14.8664 50.4556 15.5401 49.7366 16.3918 49.2052C17.2435 48.6737 18.1727 48.408 19.1793 48.408C20.6194 48.408 21.866 48.8535 22.9191 49.7444V48.6659H25.1026V63.9766H22.9191H22.9268ZM22.4235 52.4095C22.1061 51.8703 21.6802 51.4404 21.146 51.1278C20.6117 50.8152 20.031 50.6589 19.4115 50.6589C18.7921 50.6589 18.1882 50.823 17.6461 51.1356C17.1041 51.456 16.6783 51.8859 16.3686 52.4252C16.0588 52.9644 15.904 53.5506 15.904 54.1758C15.904 54.8011 16.0588 55.4029 16.3763 55.95C16.6938 56.4893 17.1196 56.9191 17.6539 57.2395C18.1882 57.56 18.7689 57.7163 19.4115 57.7163C20.0542 57.7163 20.6349 57.56 21.1692 57.2395C21.7034 56.9191 22.1216 56.4814 22.439 55.9344C22.7487 55.3873 22.9036 54.8011 22.9036 54.1758C22.9036 53.5506 22.741 52.941 22.4313 52.4095H22.4235ZM33.0081 53.4021V48.408H35.1916L35.1684 59.8265H32.9617V59.1934C32.2958 59.6936 31.3821 59.9437 30.2207 59.9437C29.0592 59.9437 28.1301 59.6077 27.2938 58.9433C26.4576 58.279 25.9543 57.4037 25.784 56.3251C25.722 55.9031 25.6911 55.2309 25.6911 54.3087V48.4002H27.8746V53.3943L27.8513 54.0742C27.8513 55.2153 28.0217 56.1063 28.3624 56.7472C28.7031 57.388 29.2993 57.7085 30.151 57.7085C31.3124 57.7085 32.079 57.4115 32.4584 56.8331C32.8378 56.247 33.0314 55.4967 33.0314 54.5666C33.0314 54.2853 33.0236 54.0742 33.0081 53.9336V53.3943V53.4021ZM38.3043 47.1497C38.041 47.4076 37.6771 47.5404 37.2125 47.5404C36.7789 47.5404 36.4305 47.4076 36.175 47.1497C35.9195 46.8918 35.7878 46.5479 35.7878 46.1258C35.7878 45.7038 35.9195 45.3599 36.1827 45.0864C36.446 44.8128 36.7867 44.6721 37.2048 44.6721C37.6694 44.6721 38.0333 44.805 38.2966 45.0707C38.5598 45.3365 38.6914 45.6882 38.6914 46.1258C38.6914 46.5635 38.5598 46.8918 38.2966 47.1497H38.3043ZM38.3043 59.8265H36.1208V48.6659H38.3043V59.8265ZM48.1765 59.8265V58.6307C47.108 59.5061 45.8537 59.9437 44.4135 59.9437C43.4224 59.9437 42.501 59.678 41.6492 59.1465C40.7975 58.6151 40.1161 57.9039 39.6051 57.0129C39.0941 56.1219 38.8386 55.1606 38.8386 54.129C38.8386 53.0973 39.0941 52.1047 39.6206 51.2372C40.1394 50.3697 40.844 49.6819 41.7344 49.1739C42.6249 48.6659 43.6082 48.4158 44.7 48.4158C45.3039 48.4158 45.9156 48.5174 46.5428 48.7206C47.17 48.9238 47.7197 49.213 48.1843 49.5881V44.68H50.3446V59.8265H48.1843H48.1765ZM47.6655 52.4174C47.3558 51.8703 46.9377 51.4404 46.4034 51.1122C45.8691 50.7917 45.2807 50.6354 44.6535 50.6354C44.0263 50.6354 43.4534 50.7995 42.9191 51.1122C42.3848 51.4326 41.9512 51.8703 41.626 52.4174C41.3008 52.9644 41.1382 53.5506 41.1382 54.1758C41.1382 54.8011 41.2931 55.3873 41.6028 55.9344C41.9125 56.4814 42.3384 56.9113 42.8804 57.2395C43.4224 57.56 44.0108 57.7163 44.6458 57.7163C45.2807 57.7163 45.8614 57.56 46.3957 57.2474C46.9299 56.9347 47.348 56.5049 47.6578 55.9578C47.9675 55.4107 48.1223 54.8167 48.1223 54.1758C48.1223 53.535 47.9675 52.9644 47.6578 52.4174H47.6655ZM53.4495 47.1497C53.1862 47.4076 52.8223 47.5404 52.3577 47.5404C51.9241 47.5404 51.5757 47.4076 51.3202 47.1497C51.0647 46.8918 50.933 46.5479 50.933 46.1258C50.933 45.7038 51.0647 45.3599 51.3279 45.0864C51.5912 44.8128 51.9319 44.6721 52.35 44.6721C52.8146 44.6721 53.1785 44.805 53.4417 45.0707C53.705 45.3365 53.8366 45.6882 53.8366 46.1258C53.8366 46.5635 53.705 46.8918 53.4417 47.1497H53.4495ZM53.4495 59.8265H51.266V48.6659H53.4495V59.8265ZM58.6527 57.1536C58.8231 57.4662 59.1328 57.6225 59.5819 57.6225C59.8606 57.6225 60.4336 57.5131 61.3008 57.2943V59.5686L60.6272 59.6858C60.5343 59.7014 60.3484 59.7327 60.0852 59.764C59.8142 59.803 59.5509 59.8187 59.3031 59.8187C58.0488 59.8187 57.2048 59.467 56.7635 58.7479C56.3221 58.0367 56.0976 57.0207 56.0976 55.6921V50.6276H53.9837V48.4002H56.0976V45.7507H58.3972V48.4002H61.3008V50.6276H58.3972V55.6452C58.3972 56.3329 58.4824 56.8331 58.6527 57.1458V57.1536ZM69.6864 57.2239C69.2683 58.49 68.8502 59.5608 68.4475 60.4361C68.0372 61.3115 67.5106 62.0852 66.8835 62.7573C66.5428 63.1168 66.0705 63.4138 65.4743 63.6327C64.8781 63.8593 64.1967 63.9766 63.4224 63.9766V61.9132C64.2431 61.7726 64.9168 61.4678 65.4433 60.9988C65.9698 60.5299 66.2331 60.0063 66.2331 59.4279C66.2331 59.2403 66.1866 59.0371 66.1014 58.8183C66.0163 58.5995 65.8614 58.2634 65.6523 57.8101C65.3271 57.1223 65.0794 56.5674 64.909 56.1454L61.6802 48.408H64.0728L67.5339 56.4736C67.8591 55.6608 68.2617 54.5588 68.7418 53.1676C68.7418 53.1364 68.8889 52.7143 69.1831 51.9015C69.7561 50.2446 70.182 49.0801 70.4607 48.408H72.8765L69.6942 57.2239H69.6864ZM83.856 57.5522V59.8265H73.4727V44H83.856V46.2978H75.8885V50.5651H83.856V52.9332L75.9117 52.9566V57.5522H83.856ZM93.7979 59.8265V58.6307C92.7294 59.5061 91.475 59.9437 90.0348 59.9437C89.0437 59.9437 88.1223 59.678 87.2706 59.1465C86.4189 58.6151 85.7375 57.9039 85.2265 57.0129C84.7154 56.1219 84.4599 55.1606 84.4599 54.129C84.4599 53.0973 84.7154 52.1047 85.242 51.2372C85.7607 50.3697 86.4654 49.6819 87.3558 49.1739C88.2462 48.6659 89.2296 48.4158 90.3213 48.4158C90.9253 48.4158 91.5447 48.5174 92.1642 48.7206C92.7913 48.9238 93.3411 49.213 93.8057 49.5881V44.68H95.9659V59.8265H93.8057H93.7979ZM93.2869 52.4174C92.9772 51.8703 92.5513 51.4404 92.017 51.1122C91.4828 50.7917 90.8943 50.6354 90.2671 50.6354C89.64 50.6354 89.067 50.7995 88.5327 51.1122C87.9985 51.4326 87.5648 51.8703 87.2396 52.4174C86.9144 52.9644 86.7518 53.5506 86.7518 54.1758C86.7518 54.8011 86.9067 55.3873 87.2164 55.9344C87.5261 56.4814 87.952 56.9113 88.494 57.2395C89.036 57.56 89.6245 57.7163 90.2594 57.7163C90.8943 57.7163 91.475 57.56 92.0093 57.2474C92.5436 56.9347 92.9617 56.5049 93.2791 55.9578C93.5889 55.4107 93.7437 54.8167 93.7437 54.1758C93.7437 53.535 93.5889 52.9644 93.2791 52.4174H93.2869ZM106.527 62.6948C105.567 63.5623 104.119 64 102.184 64C101.192 64 100.302 63.7733 99.5122 63.32C98.7224 62.8667 97.9017 62.0852 97.0499 60.9754L99.0012 59.803C99.4967 60.4127 99.9535 60.8581 100.364 61.1473C100.774 61.4365 101.138 61.6163 101.463 61.6788C101.789 61.7413 102.184 61.7726 102.648 61.7726C103.608 61.7726 104.352 61.5225 104.878 61.0223C105.405 60.5221 105.707 59.803 105.784 58.8652C105.288 59.3029 104.77 59.592 104.22 59.7327C103.67 59.8734 103.051 59.9437 102.377 59.9437C101.293 59.9437 100.31 59.6936 99.427 59.1934C98.5443 58.6932 97.8475 58.0211 97.3364 57.1692C96.8254 56.3173 96.5699 55.3873 96.5699 54.3712V53.8789C96.5699 52.941 96.8254 52.05 97.3364 51.2059C97.8475 50.3619 98.5211 49.6819 99.3651 49.1661C100.209 48.6503 101.099 48.3923 102.044 48.3923C102.772 48.3923 103.43 48.4705 104.026 48.6346C104.623 48.7987 105.226 49.1348 105.83 49.6506V48.6659H108.084V58.49C108.006 60.4283 107.487 61.8273 106.527 62.7026V62.6948ZM105.327 52.4408C105.01 51.8937 104.584 51.4639 104.05 51.1356C103.515 50.8152 102.935 50.6589 102.3 50.6589C101.665 50.6589 101.084 50.8152 100.557 51.1278C100.031 51.4404 99.6129 51.8624 99.3031 52.4095C98.9934 52.9488 98.8386 53.535 98.8386 54.1758C98.8386 54.8167 98.9934 55.4029 99.3031 55.9344C99.6129 56.4658 100.031 56.8878 100.573 57.2005C101.107 57.5131 101.696 57.6694 102.346 57.6694C102.997 57.6694 103.539 57.5209 104.081 57.2161C104.615 56.9113 105.033 56.4971 105.343 55.9734C105.652 55.4498 105.807 54.8714 105.807 54.2227C105.807 53.5741 105.652 52.9879 105.335 52.4408H105.327ZM119.954 55.3247H111.173C111.653 56.9191 112.753 57.7163 114.472 57.7163C115.184 57.7163 115.796 57.5834 116.322 57.3021C116.841 57.0285 117.367 56.5752 117.909 55.9344L119.652 56.966C119.11 57.8882 118.389 58.6151 117.491 59.1465C116.593 59.678 115.625 59.9437 114.588 59.9437C113.488 59.9437 112.489 59.7014 111.599 59.2013C110.708 58.7089 110.012 58.0211 109.501 57.1379C108.99 56.2548 108.734 55.27 108.734 54.1758C108.734 53.0817 108.99 52.136 109.493 51.2606C109.996 50.3775 110.685 49.6819 111.56 49.1739C112.435 48.6659 113.395 48.4158 114.448 48.4158C115.501 48.4158 116.492 48.6737 117.329 49.1895C118.165 49.7054 118.815 50.4322 119.295 51.3623C119.768 52.2923 120.008 53.3552 120.008 54.5354L119.961 55.3326L119.954 55.3247ZM114.472 50.6823C113.697 50.6823 113.039 50.8855 112.489 51.2841C111.94 51.6827 111.529 52.2767 111.25 53.0504H117.499C117.096 51.4717 116.09 50.6823 114.479 50.6823H114.472Z" fill="white"/>
</mask>
<g mask="url(#mask0_5563_14683)">
<rect x="-29.8643" y="39.9917" width="180.023" height="30.1974" fill="white"/>
</g>
</g>
<rect x="28" y="76" width="64" height="26" rx="6" fill="#074CAB"/>
<circle cx="39" cy="89" r="3" fill="white"/>
<path d="M45.58 93L49.15 83.578H50.214C50.886 85.202 52.342 89.108 53.826 93H52.804L51.656 89.976H47.736L46.672 93H45.58ZM51.306 89.024L49.71 84.81C49.318 85.874 48.898 86.924 48.114 89.024H51.306ZM58.0923 86.042C59.0303 86.042 60.1783 86.42 60.7383 87.33V83.578H61.5643V93H60.7383V91.768C59.8003 92.86 58.7643 93.084 57.8963 93.084C56.0483 93.084 54.4803 91.46 54.4803 89.528C54.4803 87.582 56.0483 86.042 58.0923 86.042ZM58.0643 92.216C59.5203 92.216 60.6963 91.04 60.6963 89.57C60.6963 88.128 59.5203 86.91 58.0643 86.91C56.6223 86.91 55.4043 88.114 55.4043 89.556C55.4043 91.012 56.5803 92.216 58.0643 92.216ZM70.1365 86.042C70.9485 86.042 71.8725 86.322 72.3205 87.036C72.8245 87.82 72.7405 89.248 72.7405 90.494L72.7125 93H71.8585V89.094C71.8585 87.638 71.2705 86.91 70.1645 86.91C68.2325 86.91 68.4005 89.094 68.3305 89.486V93H67.4065L67.4345 89.5C67.4485 87.582 66.8325 86.91 65.7825 86.91C63.6825 86.91 63.9205 89.402 63.9205 91.208V93H63.0525L63.0805 86.042H63.9205V86.854C64.4385 86.042 65.0265 86.042 65.7685 86.042C66.4685 86.042 67.1965 86.196 67.8825 87.19C68.4285 86.266 69.1285 86.042 70.1365 86.042ZM74.2225 84.222C74.2225 83.844 74.4745 83.578 74.8665 83.578C75.2865 83.578 75.5385 83.844 75.5385 84.222C75.5385 84.6 75.2865 84.852 74.8665 84.852C74.4745 84.852 74.2225 84.6 74.2225 84.222ZM75.2725 86.224V93H74.4465V86.224H75.2725ZM80.0352 86.042C81.4072 86.042 82.4712 86.84 82.6952 88.142C82.7652 88.576 82.7652 89.29 82.7652 89.458V93H81.8972V90.06C81.9532 88.324 81.7292 86.882 80.0912 86.882C77.5292 86.882 77.8652 88.954 77.8652 90.046V93H77.0252L77.0532 86.042H77.8932L77.8652 87.008C78.3692 86.266 79.0692 86.042 80.0352 86.042Z" fill="white"/>
<defs>
<clipPath id="clip0_5563_14683">
<rect width="120" height="20" fill="white" transform="translate(0 44)"/>
</clipPath>
</defs>
</svg>
